<mxfile host="app.diagrams.net" modified="2024-03-20T18:48:43.111Z" agent="Mozilla/5.0 (X11; Ubuntu; Linux x86_64; rv:122.0) Gecko/20100101 Firefox/122.0" etag="ffymIDmq4S_iwK3G7aud" version="24.0.7" type="device">
  <diagram name="Страница — 1" id="PnZCz5oZI6qSWvjxKZTX">
    <mxGraphModel dx="1370" dy="782" grid="1" gridSize="10" guides="1" tooltips="1" connect="1" arrows="1" fold="1" page="1" pageScale="1" pageWidth="827" pageHeight="1169" background="none" math="0" shadow="0">
      <root>
        <mxCell id="0" />
        <mxCell id="1" parent="0" />
        <mxCell id="T6dlRq8ttnZST87bFkOX-21" value="" style="shape=cube;whiteSpace=wrap;html=1;boundedLbl=1;backgroundOutline=1;darkOpacity=0.05;darkOpacity2=0.1;" parent="1" vertex="1">
          <mxGeometry x="410" y="10" width="300" height="170" as="geometry" />
        </mxCell>
        <mxCell id="T6dlRq8ttnZST87bFkOX-22" value="Django" style="rounded=1;whiteSpace=wrap;html=1;" parent="1" vertex="1">
          <mxGeometry x="440" y="70" width="80" height="60" as="geometry" />
        </mxCell>
        <mxCell id="T6dlRq8ttnZST87bFkOX-24" value="" style="endArrow=none;html=1;rounded=0;" parent="1" edge="1">
          <mxGeometry width="50" height="50" relative="1" as="geometry">
            <mxPoint x="520" y="99.5" as="sourcePoint" />
            <mxPoint x="620" y="100" as="targetPoint" />
          </mxGeometry>
        </mxCell>
        <mxCell id="T6dlRq8ttnZST87bFkOX-25" value="Postgres" style="shape=cylinder3;whiteSpace=wrap;html=1;boundedLbl=1;backgroundOutline=1;size=15;" parent="1" vertex="1">
          <mxGeometry x="620" y="55" width="60" height="80" as="geometry" />
        </mxCell>
        <mxCell id="T6dlRq8ttnZST87bFkOX-26" value="" style="endArrow=none;html=1;rounded=0;" parent="1" edge="1">
          <mxGeometry width="50" height="50" relative="1" as="geometry">
            <mxPoint x="680" y="99.5" as="sourcePoint" />
            <mxPoint x="920" y="100" as="targetPoint" />
          </mxGeometry>
        </mxCell>
        <mxCell id="T6dlRq8ttnZST87bFkOX-28" value="ETL" style="rounded=1;whiteSpace=wrap;html=1;" parent="1" vertex="1">
          <mxGeometry x="860" y="360" width="120" height="50" as="geometry" />
        </mxCell>
        <mxCell id="T6dlRq8ttnZST87bFkOX-29" value="Admin service" style="text;strokeColor=none;align=center;fillColor=none;html=1;verticalAlign=middle;whiteSpace=wrap;rounded=0;" parent="1" vertex="1">
          <mxGeometry x="530" y="30" width="60" height="30" as="geometry" />
        </mxCell>
        <mxCell id="T6dlRq8ttnZST87bFkOX-31" value="" style="endArrow=classic;html=1;rounded=0;entryX=0.5;entryY=0;entryDx=0;entryDy=0;" parent="1" target="T6dlRq8ttnZST87bFkOX-28" edge="1">
          <mxGeometry width="50" height="50" relative="1" as="geometry">
            <mxPoint x="920" y="100" as="sourcePoint" />
            <mxPoint x="970" y="50" as="targetPoint" />
          </mxGeometry>
        </mxCell>
        <mxCell id="T6dlRq8ttnZST87bFkOX-56" value="" style="shape=cube;whiteSpace=wrap;html=1;boundedLbl=1;backgroundOutline=1;darkOpacity=0.05;darkOpacity2=0.1;" parent="1" vertex="1">
          <mxGeometry x="414" y="270" width="390" height="290" as="geometry" />
        </mxCell>
        <mxCell id="q7ceRpY1EJWwIgmfkvWO-13" style="edgeStyle=orthogonalEdgeStyle;rounded=0;orthogonalLoop=1;jettySize=auto;html=1;exitX=0.9;exitY=0.5;exitDx=0;exitDy=0;exitPerimeter=0;entryX=0;entryY=0.5;entryDx=0;entryDy=0;" edge="1" parent="1" source="q7ceRpY1EJWwIgmfkvWO-9" target="q7ceRpY1EJWwIgmfkvWO-10">
          <mxGeometry relative="1" as="geometry" />
        </mxCell>
        <mxCell id="q7ceRpY1EJWwIgmfkvWO-9" value="" style="shape=actor;whiteSpace=wrap;html=1;" vertex="1" parent="1">
          <mxGeometry x="10" y="70" width="40" height="60" as="geometry" />
        </mxCell>
        <mxCell id="q7ceRpY1EJWwIgmfkvWO-14" style="edgeStyle=orthogonalEdgeStyle;rounded=0;orthogonalLoop=1;jettySize=auto;html=1;exitX=1;exitY=0.5;exitDx=0;exitDy=0;entryX=0;entryY=0.5;entryDx=0;entryDy=0;" edge="1" parent="1" source="q7ceRpY1EJWwIgmfkvWO-10" target="T6dlRq8ttnZST87bFkOX-22">
          <mxGeometry relative="1" as="geometry" />
        </mxCell>
        <mxCell id="q7ceRpY1EJWwIgmfkvWO-10" value="NGINX" style="rounded=0;whiteSpace=wrap;html=1;" vertex="1" parent="1">
          <mxGeometry x="160" y="70" width="120" height="60" as="geometry" />
        </mxCell>
        <mxCell id="q7ceRpY1EJWwIgmfkvWO-15" value="CRUD контента" style="text;strokeColor=none;align=center;fillColor=none;html=1;verticalAlign=middle;whiteSpace=wrap;rounded=0;" vertex="1" parent="1">
          <mxGeometry x="70" y="55" width="60" height="30" as="geometry" />
        </mxCell>
        <mxCell id="q7ceRpY1EJWwIgmfkvWO-16" value="Админ" style="text;strokeColor=none;align=center;fillColor=none;html=1;verticalAlign=middle;whiteSpace=wrap;rounded=0;" vertex="1" parent="1">
          <mxGeometry y="135" width="60" height="30" as="geometry" />
        </mxCell>
        <mxCell id="q7ceRpY1EJWwIgmfkvWO-54" value="&lt;div&gt;Auth service&lt;/div&gt;&lt;div&gt;&lt;br&gt;&lt;/div&gt;" style="text;strokeColor=none;align=center;fillColor=none;html=1;verticalAlign=middle;whiteSpace=wrap;rounded=0;" vertex="1" parent="1">
          <mxGeometry x="570" y="300" width="60" height="30" as="geometry" />
        </mxCell>
        <mxCell id="q7ceRpY1EJWwIgmfkvWO-56" value="Auth api" style="rounded=1;whiteSpace=wrap;html=1;" vertex="1" parent="1">
          <mxGeometry x="460" y="360" width="120" height="60" as="geometry" />
        </mxCell>
        <mxCell id="q7ceRpY1EJWwIgmfkvWO-57" value="Postgres" style="shape=cylinder3;whiteSpace=wrap;html=1;boundedLbl=1;backgroundOutline=1;size=15;" vertex="1" parent="1">
          <mxGeometry x="680" y="350" width="60" height="80" as="geometry" />
        </mxCell>
        <mxCell id="q7ceRpY1EJWwIgmfkvWO-60" value="" style="endArrow=none;html=1;rounded=0;" edge="1" parent="1" target="q7ceRpY1EJWwIgmfkvWO-57">
          <mxGeometry width="50" height="50" relative="1" as="geometry">
            <mxPoint x="580" y="389.5" as="sourcePoint" />
            <mxPoint x="660" y="389.5" as="targetPoint" />
          </mxGeometry>
        </mxCell>
        <mxCell id="q7ceRpY1EJWwIgmfkvWO-61" value="Redis" style="shape=cylinder3;whiteSpace=wrap;html=1;boundedLbl=1;backgroundOutline=1;size=15;" vertex="1" parent="1">
          <mxGeometry x="475" y="480" width="90" height="60" as="geometry" />
        </mxCell>
        <mxCell id="q7ceRpY1EJWwIgmfkvWO-62" value="" style="endArrow=none;html=1;rounded=0;" edge="1" parent="1">
          <mxGeometry width="50" height="50" relative="1" as="geometry">
            <mxPoint x="520" y="490" as="sourcePoint" />
            <mxPoint x="520" y="420" as="targetPoint" />
          </mxGeometry>
        </mxCell>
        <mxCell id="q7ceRpY1EJWwIgmfkvWO-64" value="" style="endArrow=none;html=1;rounded=0;" edge="1" parent="1">
          <mxGeometry width="50" height="50" relative="1" as="geometry">
            <mxPoint x="50" y="120" as="sourcePoint" />
            <mxPoint x="100" y="120" as="targetPoint" />
          </mxGeometry>
        </mxCell>
        <mxCell id="q7ceRpY1EJWwIgmfkvWO-65" value="" style="endArrow=none;html=1;rounded=0;" edge="1" parent="1">
          <mxGeometry width="50" height="50" relative="1" as="geometry">
            <mxPoint x="100" y="390" as="sourcePoint" />
            <mxPoint x="100" y="120" as="targetPoint" />
          </mxGeometry>
        </mxCell>
        <mxCell id="q7ceRpY1EJWwIgmfkvWO-66" value="" style="endArrow=classic;html=1;rounded=0;" edge="1" parent="1">
          <mxGeometry width="50" height="50" relative="1" as="geometry">
            <mxPoint x="100" y="389.5" as="sourcePoint" />
            <mxPoint x="170" y="389.5" as="targetPoint" />
          </mxGeometry>
        </mxCell>
        <mxCell id="q7ceRpY1EJWwIgmfkvWO-67" value="NGINX" style="rounded=0;whiteSpace=wrap;html=1;" vertex="1" parent="1">
          <mxGeometry x="170" y="360" width="120" height="60" as="geometry" />
        </mxCell>
        <mxCell id="q7ceRpY1EJWwIgmfkvWO-69" value="Создание роли для пользователя" style="text;strokeColor=none;align=center;fillColor=none;html=1;verticalAlign=middle;whiteSpace=wrap;rounded=0;rotation=270;" vertex="1" parent="1">
          <mxGeometry x="50" y="210" width="60" height="30" as="geometry" />
        </mxCell>
        <mxCell id="q7ceRpY1EJWwIgmfkvWO-70" value="" style="shape=cube;whiteSpace=wrap;html=1;boundedLbl=1;backgroundOutline=1;darkOpacity=0.05;darkOpacity2=0.1;" vertex="1" parent="1">
          <mxGeometry x="414" y="670" width="390" height="290" as="geometry" />
        </mxCell>
        <mxCell id="q7ceRpY1EJWwIgmfkvWO-71" value="Film service" style="text;strokeColor=none;align=center;fillColor=none;html=1;verticalAlign=middle;whiteSpace=wrap;rounded=0;" vertex="1" parent="1">
          <mxGeometry x="570" y="700" width="60" height="30" as="geometry" />
        </mxCell>
        <mxCell id="q7ceRpY1EJWwIgmfkvWO-72" value="Async api" style="rounded=1;whiteSpace=wrap;html=1;" vertex="1" parent="1">
          <mxGeometry x="460" y="785" width="120" height="60" as="geometry" />
        </mxCell>
        <mxCell id="q7ceRpY1EJWwIgmfkvWO-73" value="Elastic" style="shape=cylinder3;whiteSpace=wrap;html=1;boundedLbl=1;backgroundOutline=1;size=15;" vertex="1" parent="1">
          <mxGeometry x="670" y="780" width="100" height="70" as="geometry" />
        </mxCell>
        <mxCell id="q7ceRpY1EJWwIgmfkvWO-75" value="" style="endArrow=none;html=1;rounded=0;" edge="1" parent="1">
          <mxGeometry width="50" height="50" relative="1" as="geometry">
            <mxPoint x="580" y="814.5" as="sourcePoint" />
            <mxPoint x="670" y="814.5" as="targetPoint" />
          </mxGeometry>
        </mxCell>
        <mxCell id="q7ceRpY1EJWwIgmfkvWO-76" value="" style="endArrow=none;html=1;rounded=0;" edge="1" parent="1">
          <mxGeometry width="50" height="50" relative="1" as="geometry">
            <mxPoint x="920" y="820" as="sourcePoint" />
            <mxPoint x="919.5" y="410" as="targetPoint" />
          </mxGeometry>
        </mxCell>
        <mxCell id="q7ceRpY1EJWwIgmfkvWO-78" value="" style="endArrow=classic;html=1;rounded=0;" edge="1" parent="1">
          <mxGeometry width="50" height="50" relative="1" as="geometry">
            <mxPoint x="920" y="820" as="sourcePoint" />
            <mxPoint x="770" y="820" as="targetPoint" />
          </mxGeometry>
        </mxCell>
        <mxCell id="q7ceRpY1EJWwIgmfkvWO-80" value="Redis" style="shape=cylinder3;whiteSpace=wrap;html=1;boundedLbl=1;backgroundOutline=1;size=15;" vertex="1" parent="1">
          <mxGeometry x="475" y="880" width="90" height="60" as="geometry" />
        </mxCell>
        <mxCell id="q7ceRpY1EJWwIgmfkvWO-81" value="" style="endArrow=none;html=1;rounded=0;" edge="1" parent="1">
          <mxGeometry width="50" height="50" relative="1" as="geometry">
            <mxPoint x="520" y="890" as="sourcePoint" />
            <mxPoint x="520" y="845" as="targetPoint" />
            <Array as="points">
              <mxPoint x="520" y="885" />
            </Array>
          </mxGeometry>
        </mxCell>
        <mxCell id="q7ceRpY1EJWwIgmfkvWO-86" style="edgeStyle=orthogonalEdgeStyle;rounded=0;orthogonalLoop=1;jettySize=auto;html=1;exitX=0.9;exitY=0.5;exitDx=0;exitDy=0;exitPerimeter=0;entryX=0;entryY=0.5;entryDx=0;entryDy=0;" edge="1" parent="1" source="q7ceRpY1EJWwIgmfkvWO-82" target="q7ceRpY1EJWwIgmfkvWO-84">
          <mxGeometry relative="1" as="geometry" />
        </mxCell>
        <mxCell id="q7ceRpY1EJWwIgmfkvWO-82" value="" style="shape=actor;whiteSpace=wrap;html=1;" vertex="1" parent="1">
          <mxGeometry x="10" y="685" width="40" height="60" as="geometry" />
        </mxCell>
        <mxCell id="q7ceRpY1EJWwIgmfkvWO-83" value="Клиент" style="text;strokeColor=none;align=center;fillColor=none;html=1;verticalAlign=middle;whiteSpace=wrap;rounded=0;" vertex="1" parent="1">
          <mxGeometry y="750" width="60" height="30" as="geometry" />
        </mxCell>
        <mxCell id="q7ceRpY1EJWwIgmfkvWO-84" value="NGINX" style="rounded=0;whiteSpace=wrap;html=1;" vertex="1" parent="1">
          <mxGeometry x="180" y="685" width="120" height="60" as="geometry" />
        </mxCell>
        <mxCell id="q7ceRpY1EJWwIgmfkvWO-87" value="Запрос контента" style="text;strokeColor=none;align=center;fillColor=none;html=1;verticalAlign=middle;whiteSpace=wrap;rounded=0;" vertex="1" parent="1">
          <mxGeometry x="80" y="680" width="60" height="30" as="geometry" />
        </mxCell>
        <mxCell id="q7ceRpY1EJWwIgmfkvWO-89" value="" style="endArrow=none;html=1;rounded=0;" edge="1" parent="1">
          <mxGeometry width="50" height="50" relative="1" as="geometry">
            <mxPoint x="300" y="720" as="sourcePoint" />
            <mxPoint x="350" y="720" as="targetPoint" />
          </mxGeometry>
        </mxCell>
        <mxCell id="q7ceRpY1EJWwIgmfkvWO-90" value="" style="endArrow=none;html=1;rounded=0;" edge="1" parent="1">
          <mxGeometry width="50" height="50" relative="1" as="geometry">
            <mxPoint x="350" y="720" as="sourcePoint" />
            <mxPoint x="350" y="820" as="targetPoint" />
          </mxGeometry>
        </mxCell>
        <mxCell id="q7ceRpY1EJWwIgmfkvWO-92" value="" style="endArrow=classic;html=1;rounded=0;" edge="1" parent="1">
          <mxGeometry width="50" height="50" relative="1" as="geometry">
            <mxPoint x="350" y="820" as="sourcePoint" />
            <mxPoint x="460" y="820" as="targetPoint" />
          </mxGeometry>
        </mxCell>
        <mxCell id="q7ceRpY1EJWwIgmfkvWO-95" value="" style="endArrow=none;html=1;rounded=0;" edge="1" parent="1">
          <mxGeometry width="50" height="50" relative="1" as="geometry">
            <mxPoint x="29.5" y="685" as="sourcePoint" />
            <mxPoint x="30" y="520" as="targetPoint" />
          </mxGeometry>
        </mxCell>
        <mxCell id="q7ceRpY1EJWwIgmfkvWO-97" value="" style="endArrow=classic;html=1;rounded=0;entryX=0;entryY=0.5;entryDx=0;entryDy=0;" edge="1" parent="1" target="q7ceRpY1EJWwIgmfkvWO-98">
          <mxGeometry width="50" height="50" relative="1" as="geometry">
            <mxPoint x="30" y="520" as="sourcePoint" />
            <mxPoint x="160" y="520" as="targetPoint" />
          </mxGeometry>
        </mxCell>
        <mxCell id="q7ceRpY1EJWwIgmfkvWO-98" value="NGINX" style="rounded=0;whiteSpace=wrap;html=1;" vertex="1" parent="1">
          <mxGeometry x="170" y="490" width="120" height="60" as="geometry" />
        </mxCell>
        <mxCell id="q7ceRpY1EJWwIgmfkvWO-101" value="Авторизация&lt;br&gt;Регистрация" style="text;strokeColor=none;align=center;fillColor=none;html=1;verticalAlign=middle;whiteSpace=wrap;rounded=0;" vertex="1" parent="1">
          <mxGeometry x="70" y="480" width="60" height="30" as="geometry" />
        </mxCell>
        <mxCell id="q7ceRpY1EJWwIgmfkvWO-102" value="" style="endArrow=none;html=1;rounded=0;" edge="1" parent="1">
          <mxGeometry width="50" height="50" relative="1" as="geometry">
            <mxPoint x="290" y="519.5" as="sourcePoint" />
            <mxPoint x="360" y="520" as="targetPoint" />
          </mxGeometry>
        </mxCell>
        <mxCell id="q7ceRpY1EJWwIgmfkvWO-103" value="" style="endArrow=classic;html=1;rounded=0;entryX=0;entryY=0.5;entryDx=0;entryDy=0;" edge="1" parent="1" target="q7ceRpY1EJWwIgmfkvWO-56">
          <mxGeometry width="50" height="50" relative="1" as="geometry">
            <mxPoint x="290" y="389.5" as="sourcePoint" />
            <mxPoint x="360" y="389.5" as="targetPoint" />
            <Array as="points" />
          </mxGeometry>
        </mxCell>
        <mxCell id="q7ceRpY1EJWwIgmfkvWO-104" value="" style="endArrow=none;html=1;rounded=0;" edge="1" parent="1">
          <mxGeometry width="50" height="50" relative="1" as="geometry">
            <mxPoint x="360" y="520" as="sourcePoint" />
            <mxPoint x="360" y="410" as="targetPoint" />
          </mxGeometry>
        </mxCell>
        <mxCell id="q7ceRpY1EJWwIgmfkvWO-106" value="" style="endArrow=classic;html=1;rounded=0;entryX=0.025;entryY=0.867;entryDx=0;entryDy=0;entryPerimeter=0;" edge="1" parent="1" target="q7ceRpY1EJWwIgmfkvWO-56">
          <mxGeometry width="50" height="50" relative="1" as="geometry">
            <mxPoint x="360" y="410" as="sourcePoint" />
            <mxPoint x="440" y="410" as="targetPoint" />
          </mxGeometry>
        </mxCell>
      </root>
    </mxGraphModel>
  </diagram>
</mxfile>